<svg xmlns="http://www.w3.org/2000/svg" viewBox="0 0 48 48" role="img" aria-label="Google">
  <rect width="48" height="48" rx="10" fill="#fff"/>
  <path fill="#4285f4" d="M38.6 24.4c0-1-.1-1.8-.2-2.7H24v5.4h8.3a7.1 7.1 0 0 1-3.1 4.6v3.5h5c2.9-2.7 4.4-6.5 4.4-10.8z"/>
  <path fill="#34a853" d="M24 39c4 0 7.5-1.3 10-3.7l-4.8-3.6c-1.3.9-3 1.4-5.2 1.4-4 0-7.4-2.7-8.6-6.3h-5v3.7A15 15 0 0 0 24 39z"/>
  <path fill="#fbbc04" d="M15.4 26.8a9 9 0 0 1 0-5.7v-3.7h-5a15 15 0 0 0 0 13.1z"/>
  <path fill="#ea4335" d="M24 14.9c2.2 0 4.2.8 5.8 2.2l4.3-4.3A14.7 14.7 0 0 0 24 9a15 15 0 0 0-13.6 8.4l5 3.7c1.2-3.6 4.6-6.2 8.6-6.2z"/>
  <rect x=".5" y=".5" width="47" height="47" rx="9.5" fill="none" stroke="#dfe5e8"/>
</svg>
