<svg xmlns="http://www.w3.org/2000/svg" viewBox="0 0 48 48" role="img" aria-label="Google Classroom">
  <rect width="48" height="48" rx="10" fill="#0f9d58"/>
  <rect x="7" y="12" width="34" height="24" rx="3" fill="#57bb8a"/>
  <rect x="10" y="15" width="28" height="18" rx="1.5" fill="#0b8043"/>
  <circle cx="24" cy="22" r="4" fill="#fbbc04"/>
  <path fill="#fbbc04" d="M17 31c.7-3.2 3.3-5.2 7-5.2s6.3 2 7 5.2z"/>
  <circle cx="15" cy="24" r="2.5" fill="#fdd663"/>
  <circle cx="33" cy="24" r="2.5" fill="#fdd663"/>
  <path fill="#fdd663" d="M11.5 31c.4-2 1.8-3.3 3.5-3.3s3.1 1.3 3.5 3.3zm18 0c.4-2 1.8-3.3 3.5-3.3s3.1 1.3 3.5 3.3z"/>
  <rect x=".5" y=".5" width="47" height="47" rx="9.5" fill="none" stroke="#0b8043"/>
</svg>
